<svg width="118" height="276" viewBox="0 0 118 276" fill="none" xmlns="http://www.w3.org/2000/svg">
<path d="M83.3865 28.5223C84.0959 30.3072 85.2709 30.6125 87.4027 30.6391C89.9906 30.6713 93.2535 30.6125 94.3824 33.6228C94.4268 33.7413 94.5377 33.907 94.652 33.9312C98.2543 34.692 98.3468 38.7373 101.34 39.5638C103.759 40.2318 104.898 42.1535 107.351 42.6651C111.067 43.4399 112.089 46.5211 113.152 49.1252C113.843 50.8193 114.243 52.8176 113.59 54.7279C113.423 55.2145 113.502 55.7082 113.947 55.9954C115.682 57.1152 115.499 58.8364 115.474 60.2905C115.438 62.4522 116.613 64.6156 115.494 66.7794C115.222 67.3061 115.97 67.5429 116.169 67.9495C117.186 70.0172 116.796 72.0352 116.096 74.33C117.121 75.2239 116.694 76.562 116.4 77.8913C116.042 79.5074 115.035 81.1429 116.571 82.7103C115.008 84.6763 118.157 86.7608 116.33 88.8069C115.866 89.3268 117.08 90.037 116.945 90.9459C116.7 92.6022 117.383 94.4763 116.726 95.9466C115.403 98.9062 117.751 101.863 116.268 104.725C116.025 105.193 116.329 105.731 116.494 106.246C117.198 108.447 116.655 110.476 115.27 112.457C116.798 113.867 115.907 115.838 115.842 117.458C115.709 120.792 114.587 124.088 114.107 127.424C113.738 129.996 113.743 132.608 111.607 134.713C113.298 136.647 110.523 138.075 110.796 139.932C110.966 141.086 110.479 142.407 109.038 143.144C108.796 143.268 108.501 143.544 108.499 143.752C108.466 147.802 104.806 150.494 103.152 153.95C101.643 157.104 100.066 160.155 99.5717 163.537C99.3326 165.173 98.1071 166.436 97.7787 168.105C97.019 171.964 96.84 175.841 96.5342 179.719C96.4961 180.201 96.4151 180.611 96.0964 180.999C95.4121 181.831 95.681 182.491 96.0995 183.47C97.1993 186.043 97.9931 188.904 96.06 191.378C95.0168 192.714 95.1333 194.082 95.4251 195.164C96.3634 198.641 95.6707 202.127 96.0421 205.578C96.4381 209.257 95.7705 212.908 96.0046 216.601C96.1593 219.043 98.1577 221.195 97.1693 223.685C99.049 224.556 98.9758 226.461 100.088 227.739C100.226 227.896 100.403 228.051 100.465 228.231C101.115 230.127 100.136 232.318 102.295 233.967C102.301 234.499 102.981 233.731 103.274 234.159C104.868 236.481 108.124 238.007 107.985 241.143C107.939 242.168 108.612 242.982 109.318 243.292C112.288 244.593 112.167 247.124 112.776 249.299C113.647 252.407 114.367 255.561 114.851 258.729C115.149 260.678 114.94 262.598 116.331 264.417C117.331 265.726 116.1 267.548 117.022 269.101C117.346 269.648 116.488 270.325 115.803 270.613C112.538 271.988 109.214 272.912 105.456 270.834C105.628 272.02 105.084 272.298 104.164 272.823C101.601 274.286 98.7132 274.356 95.9634 274.982C94.1167 275.403 92.4134 274.319 90.449 274.549C88.7459 274.748 86.7366 275.179 85.1362 273.774C84.6687 273.364 83.9644 274.231 83.2729 274.288C81.4456 274.44 78.8656 272.803 78.1273 271.22C77.3995 269.66 76.5309 268.136 75.5638 266.673C74.3699 264.868 73.2331 263.041 72.596 261.044C72.2611 259.994 71.2191 259.512 70.5973 258.706C69.3195 257.049 69.5779 254.992 69.7751 253.424C70.2562 249.597 69.6937 245.809 69.9805 242.016C69.9952 241.822 69.8913 241.609 69.9494 241.43C71.4341 236.866 69.6919 232.314 69.7409 227.751C69.759 226.059 70.0717 224.155 69.2557 222.431C69.0004 221.892 69.3073 221.422 69.6398 220.958C70.4045 219.891 69.3354 219.24 68.7747 218.528C68.2228 217.827 67.3514 217.467 66.366 217.837C62.378 219.332 58.0736 219.997 54.0276 221.317C51.6757 222.084 51.0477 223.539 51.5456 226.513C51.6789 227.31 51.9069 228.075 51.435 228.808C50.5425 230.195 49.8757 231.533 51.4763 232.92C51.8615 233.254 51.7563 233.826 51.4908 234.235C50.0865 236.398 51.1139 238.508 51.4517 240.693C51.8251 243.109 52.0882 245.661 51.5848 248.026C50.6994 252.187 51.3338 256.312 51.3187 260.442C51.3086 263.198 48.9567 264.36 47.0419 265.523C44.1938 267.254 40.7642 268.166 37.8678 270.029C35.6948 271.426 32.9845 272.215 29.8626 272.178C27.0573 272.145 24.1743 271.523 21.3269 272.303C19.6288 272.768 18.0273 271.705 16.1974 271.79C14.029 271.89 11.788 272.141 9.65787 271.952C6.6486 271.684 3.41217 271.239 1.30839 269.131C-0.0920717 267.728 -0.314975 265.786 0.386075 263.945C0.794129 262.874 2.05155 262.075 1.6435 260.72C1.52579 260.329 2.16745 260.107 2.63659 260.076C5.14171 259.911 5.90099 258.325 7.00847 256.685C9.58349 252.873 10.5539 248.703 11.8051 244.531C12.8292 241.117 13.5823 237.672 14.5126 234.259C15.1016 232.098 15.9013 230.061 15.9032 227.775C15.9045 226.258 16.7839 224.687 17.5411 223.324C18.6221 221.38 18.4937 219.216 19.787 217.232C20.6136 215.963 19.7951 213.575 20.3796 211.755C21.0734 209.593 20.6649 207.274 21.2117 205.25C22.354 201.021 22.7709 196.683 24.3353 192.486C25.5742 189.162 27.796 186.138 28.1936 182.494C28.4581 180.07 30.4797 177.793 30.7818 175.365C31.3628 170.694 33.2798 166.186 33.0234 161.426C33.0068 161.118 33.086 160.655 33.3233 160.513C35.2934 159.337 34.474 157.885 34.3916 156.255C34.2752 153.951 34.4569 151.532 35.4472 149.247C37.2256 145.145 38.9013 140.89 38.8791 136.56C38.8651 133.826 38.0783 130.929 37.3579 128.151C37.2062 127.566 36.9948 127.054 37.199 126.45C37.5417 125.438 37.6337 124.497 37 123.441C36.1892 122.089 37.6714 120.652 37.161 119.202C36.8098 118.205 36.4535 117.184 37.1971 116.19C37.3808 115.944 37.3896 115.72 37.2208 115.466C35.4201 112.759 34.8223 109.702 33.7772 106.774C32.77 103.953 29.9886 102.34 27.9441 100.204C25.9683 98.1399 22.694 97.3308 21.4279 94.5818C21.0129 93.6807 19.4448 92.858 18.7039 91.8077C16.5547 88.7611 14.5552 85.4882 14.5967 81.9516C14.6308 79.0576 13.6565 75.9614 15.5133 73.1651C15.6544 72.9526 15.8481 72.6249 15.7548 72.4599C14.0727 69.4861 16.5172 66.9229 16.8445 64.1553C18.7766 63.7221 17.5114 62.2374 18.0405 61.278C19.5466 58.5473 21.2866 55.9032 22.2604 52.9159C22.9048 50.9388 24.47 49.0008 26.1697 47.5005C28.7132 45.2553 30.7488 42.7461 32.7819 40.1959C33.2374 39.6246 33.9698 39.2155 34.6091 38.7043C34.5134 37.5888 32.9505 35.8576 35.7034 36.0848C35.9491 33.6096 38.093 32.3863 39.7181 31.0246C41.5459 29.4931 44.0333 28.6789 46.5705 28.9623C48.9826 29.2318 51.3901 29.5708 53.665 29.8474C54.2913 29.5315 54.1835 29.0836 54.3356 28.7278C55.4171 26.1991 55.0412 25.6598 51.7816 25.4097C49.6035 25.2426 47.5332 24.412 45.2228 24.8861C44.3259 25.0702 43.2039 24.4064 43.1815 23.3925C43.1486 21.9025 43.6809 20.4983 45.1278 19.5592C46.6216 18.5897 47.8039 19.1259 48.7542 20.6742C48.4887 18.6053 49.4581 17.7638 51.3566 17.1748C53.0262 16.6568 52.8858 14.7654 51.1288 13.7366C48.9175 12.4418 48.1969 10.4932 47.6144 8.44946C47.4083 7.72634 47.9945 6.69708 48.5019 6.98223C50.3858 8.04097 52.3785 6.08727 54.2334 7.38828C54.8472 7.81877 56.0242 8.12997 57.0665 7.69237C57.4896 7.51469 57.8744 7.59551 58.2587 7.9649C60.0531 9.68992 62.0087 9.37291 63.5834 7.50343C65.1168 5.68298 64.2211 3.32291 65.7858 1.53727C66.2107 1.05246 66.2353 0.0771754 67.1148 0.191338C68.4502 0.364691 70.2686 -0.681187 71.0743 0.837569C72.1565 2.87746 74.5286 4.54961 73.6856 7.21213C73.4119 8.07628 74.3092 8.44714 75.348 8.85292C77.3069 6.29702 81.1304 6.62582 83.8656 4.99579C85.1871 4.2082 86.6604 4.8588 87.3538 6.28063C87.7832 7.16119 87.8107 8.02248 86.8413 8.56759C85.8171 9.14358 85.3963 8.28401 84.8819 7.73558C84.7537 7.5989 84.5051 7.54525 84.3044 7.44993C83.6007 9.24661 84.0279 9.65228 87.0794 9.88831C86.1813 11.5004 85.4711 13.0947 84.2148 14.4637C85.7193 17.6754 86.084 17.7075 89.8806 17.9824C91.9742 18.134 94.0443 18.6956 96.1955 18.7565C96.9971 18.7791 97.2282 19.4435 97.3099 20.0695C97.3973 20.7391 96.9142 21.0087 96.2745 21.1668C95.9122 21.2564 95.2709 21.2667 95.221 21.4224C94.4487 23.8317 92.288 23.431 90.2453 23.2937C89.7916 23.2632 89.2629 23.1582 88.9895 23.5681C88.0848 24.9245 86.3426 25.2877 84.9939 26.1163C84.081 26.6771 82.9958 27.1772 83.3865 28.5223ZM106.862 246.959C105.592 244.966 105.723 242.347 103.253 240.82C98.4254 248.04 102.065 255.264 109.055 257.446C108.369 254.011 107.693 250.632 106.862 246.959ZM47.2475 229.389C48.1021 228.941 49.2244 228.465 48.68 227.459C47.9881 226.179 47.5504 224.872 47.0897 223.47C46.8196 225.475 45.7391 227.422 47.2475 229.389ZM36.5872 75.8625C35.7635 76.2862 35.6435 76.9749 35.641 77.708C35.6392 78.2163 35.5078 78.7697 36.1695 79.0794C36.5304 79.2482 36.9421 79.2146 37.2162 78.9755C37.7373 78.5211 38.465 77.8126 37.9982 77.3472C37.1628 76.5143 37.8663 75.8128 38.0207 74.7253C37.429 75.2039 37.1225 75.4518 36.5872 75.8625ZM54.9392 19.8716C53.8873 20.2242 52.8355 20.5768 51.5522 21.007C53.1463 21.7413 54.351 22.6323 55.9313 21.8051C56.1383 21.0115 55.6207 20.5216 54.9392 19.8716Z" fill="#222120"/>
</svg>
